<?xml version="1.0" standalone="no"?>
<!DOCTYPE svg PUBLIC "-//W3C//DTD SVG 20010904//EN"
 "http://www.w3.org/TR/2001/REC-SVG-20010904/DTD/svg10.dtd">
<svg version="1.0" xmlns="http://www.w3.org/2000/svg"
 width="305.282513pt" height="360.655308pt" viewBox="0 0 305.282513 360.655308"
 preserveAspectRatio="xMidYMid meet">
 <defs>
    <linearGradient id="grad" x1="0%" y1="0%" x2="100%" y2="0%">
    <!-- stop-color="blue" and stop-color="red" -->
        <stop offset="0%" stop-color="blue" stop-opacity="0.4"/>
        <stop offset="100%" stop-color="red" stop-opacity="1"/>
    </linearGradient>
 </defs>
<metadata>
Created by potrace 1.12, written by Peter Selinger 2001-2015
</metadata>
<g transform="translate(-96.217487,430.000000) scale(0.100000,-0.100000)"
fill="url(#grad)" stroke="blue">
<path d="M2097 4293 c-3 -4 -40 -118 -82 -253 -152 -484 -373 -1173 -717
-2235 -326 -1006 -348 -1080 -332 -1092 10 -7 25 -13 33 -13 12 0 77 188 265
773 137 424 253 780 258 790 8 16 35 17 358 17 193 0 350 -3 350 -7 0 -5 -115
-357 -255 -783 -140 -426 -251 -778 -247 -782 4 -3 19 -9 33 -13 26 -6 26 -6
113 262 48 147 163 498 256 778 l167 510 17 -55 c9 -30 116 -377 239 -770
l223 -715 227 -3 c192 -2 227 0 227 12 0 8 -108 362 -240 788 -132 425 -240
779 -240 786 0 10 35 12 157 10 l158 -3 245 -787 c135 -433 250 -792 256 -798
14 -14 449 -9 449 5 0 33 -1112 3585 -1122 3585 -7 0 -32 -63 -57 -142 -24
-79 -108 -345 -186 -593 -78 -247 -145 -453 -149 -458 -4 -4 -91 261 -193 590
-102 328 -190 599 -196 601 -5 1 -12 -1 -15 -5z m-8 -1380 c94 -303 171 -554
171 -557 0 -3 -160 -6 -356 -6 -334 0 -355 1 -350 18 3 9 48 148 100 307 51
160 131 404 176 543 45 140 83 252 85 250 1 -1 80 -251 174 -555z m780 12 c89
-286 164 -528 167 -537 5 -17 -7 -18 -155 -18 l-159 0 -21 63 c-54 166 -161
517 -161 529 -1 25 154 498 161 490 4 -4 80 -241 168 -527z"/>
</g>
</svg>
